#define Pehlivan128X64Down_width 128
#define Pehlivan128X64Down_height 64
#define Pehlivan128X64Down_x_hot 0
#define Pehlivan128X64Down_y_hot 0
static unsigned char Pehlivan128X64Down_bits[] = {
   0x00, 0x00, 0x00, 0x00, 0x00, 0x00, 0x00, 0x00, 0x00, 0x00, 0x00, 0x00,
   0x00, 0x00, 0x00, 0x00, 0x00, 0x00, 0x00, 0x00, 0x00, 0x00, 0x00, 0x00,
   0x00, 0x00, 0x00, 0x00, 0x00, 0x00, 0x00, 0x00, 0x00, 0x00, 0x00, 0x00,
   0x00, 0x00, 0x00, 0x00, 0x00, 0x00, 0x00, 0x00, 0x00, 0x00, 0x00, 0x00,
   0x00, 0x00, 0x00, 0x00, 0x00, 0x00, 0x00, 0x00, 0x00, 0x00, 0x00, 0x00,
   0x00, 0x00, 0x00, 0x00, 0x00, 0x00, 0x00, 0x00, 0x00, 0x00, 0x00, 0x00,
   0x00, 0x00, 0x00, 0x00, 0x00, 0x00, 0x00, 0x00, 0x00, 0x00, 0x00, 0x00,
   0x00, 0x00, 0x00, 0x00, 0x00, 0x00, 0x00, 0x00, 0x00, 0x00, 0x00, 0x00,
   0x00, 0x00, 0x00, 0x00, 0x00, 0x00, 0x00, 0x00, 0x00, 0x00, 0x00, 0x00,
   0x00, 0x00, 0x00, 0x00, 0x00, 0x00, 0x00, 0x00, 0x00, 0x00, 0x00, 0x00,
   0x00, 0x00, 0x00, 0x00, 0x00, 0x00, 0x00, 0x00, 0x00, 0x00, 0x00, 0x00,
   0x00, 0x00, 0x00, 0x00, 0x00, 0x00, 0x00, 0x00, 0x00, 0x00, 0x00, 0x00,
   0x00, 0x00, 0x00, 0x00, 0x00, 0x00, 0x00, 0x00, 0x00, 0x00, 0x00, 0x00,
   0x00, 0x00, 0x00, 0x00, 0x00, 0x00, 0x00, 0x00, 0x00, 0x00, 0x00, 0x00,
   0x00, 0x00, 0x00, 0x00, 0x00, 0x00, 0x00, 0x00, 0x00, 0x00, 0x00, 0x00,
   0x00, 0x00, 0x00, 0x00, 0x00, 0x00, 0x00, 0x00, 0x00, 0x00, 0x00, 0x00,
   0x00, 0x00, 0x00, 0x00, 0x00, 0x00, 0x00, 0x00, 0x00, 0x00, 0x00, 0x00,
   0x00, 0x00, 0x00, 0x00, 0x00, 0x00, 0x00, 0x00, 0x00, 0x00, 0x00, 0x00,
   0x00, 0x00, 0x00, 0x00, 0x00, 0x00, 0x00, 0x00, 0x00, 0x00, 0x00, 0x00,
   0x00, 0x00, 0x00, 0x00, 0x00, 0x00, 0x00, 0x00, 0x00, 0x00, 0x00, 0x00,
   0x00, 0x00, 0x00, 0x00, 0x00, 0x00, 0x00, 0x00, 0x00, 0x00, 0x00, 0x00,
   0x00, 0x00, 0x00, 0x00, 0x00, 0x00, 0x00, 0x00, 0x00, 0x00, 0x00, 0x00,
   0x00, 0x00, 0x00, 0x00, 0x00, 0x00, 0x00, 0x00, 0x00, 0x00, 0x00, 0x00,
   0x00, 0x2a, 0x54, 0x45, 0xa9, 0x28, 0xa8, 0x28, 0x05, 0x04, 0x85, 0x02,
   0x00, 0xd4, 0xff, 0x1f, 0x80, 0xff, 0xfc, 0xef, 0xfb, 0x7e, 0xf8, 0x7e,
   0x0f, 0x07, 0xcf, 0x03, 0x00, 0xfe, 0xff, 0xff, 0x00, 0xce, 0x79, 0xce,
   0x73, 0x1c, 0x70, 0x3c, 0x06, 0x0f, 0x1e, 0x03, 0x00, 0xff, 0xff, 0xff,
   0x01, 0xcf, 0x39, 0xcc, 0x71, 0x1c, 0x70, 0x18, 0x06, 0x0f, 0x9e, 0x01,
   0x00, 0xff, 0xff, 0xff, 0x03, 0x8e, 0x39, 0xcc, 0x71, 0x1c, 0x70, 0x38,
   0x82, 0x0f, 0x1e, 0x01, 0x00, 0x15, 0x00, 0xf0, 0x03, 0xce, 0x3b, 0xc1,
   0x71, 0x1c, 0x70, 0x38, 0x83, 0x0d, 0xbe, 0x01, 0x00, 0x00, 0x00, 0xc0,
   0x07, 0xce, 0x79, 0xc3, 0x71, 0x1c, 0x70, 0x38, 0x83, 0x1d, 0x3a, 0x01,
   0x00, 0xe0, 0x03, 0xc0, 0x07, 0xfe, 0xf9, 0xc1, 0x7f, 0x1c, 0x70, 0x30,
   0x83, 0x1c, 0xb2, 0x01, 0x00, 0xe0, 0x03, 0xc0, 0x03, 0x7e, 0x78, 0xc3,
   0x75, 0x1c, 0x70, 0x70, 0xc1, 0x1c, 0x76, 0x01, 0x00, 0xe0, 0x03, 0xe0,
   0x03, 0x0f, 0x38, 0xc1, 0x71, 0x1c, 0x70, 0x70, 0xc1, 0x1f, 0xf2, 0x01,
   0x00, 0xf0, 0x01, 0xf0, 0x03, 0x0e, 0x38, 0xcd, 0x71, 0x1c, 0x73, 0xf0,
   0xc1, 0x1f, 0xe2, 0x01, 0x00, 0xf0, 0x01, 0xfc, 0x01, 0x06, 0x38, 0xcc,
   0x71, 0x1c, 0x72, 0xf0, 0x41, 0x38, 0xe6, 0x01, 0x00, 0xf0, 0x00, 0xff,
   0x00, 0x0e, 0x38, 0xcc, 0x71, 0x1c, 0x73, 0xe0, 0x61, 0x38, 0xc2, 0x01,
   0x00, 0xf8, 0xf0, 0x3f, 0x00, 0x0f, 0x78, 0xcf, 0xf3, 0xbc, 0xf3, 0xe0,
   0xe0, 0x3c, 0xc7, 0x01, 0x00, 0xf8, 0xff, 0x1f, 0x00, 0x1f, 0xfc, 0xef,
   0xff, 0xfe, 0xfb, 0xe0, 0xf0, 0x7c, 0xcf, 0x01, 0x00, 0xfc, 0xff, 0x03,
   0x00, 0x00, 0x00, 0x00, 0x00, 0x00, 0x00, 0x00, 0x00, 0x00, 0x00, 0x00,
   0x00, 0xfc, 0x7f, 0x00, 0x00, 0x00, 0x00, 0x00, 0x00, 0x00, 0x00, 0x00,
   0x00, 0x00, 0x00, 0x00, 0x00, 0xfc, 0x07, 0x00, 0x00, 0x00, 0x00, 0x00,
   0x00, 0x00, 0x00, 0x00, 0x00, 0x00, 0x00, 0x00, 0x00, 0x80, 0x07, 0x00,
   0x00, 0x00, 0x00, 0x00, 0x00, 0x00, 0x00, 0x00, 0x00, 0x00, 0x00, 0x00,
   0x00, 0xc0, 0x07, 0x00, 0x00, 0x00, 0x00, 0x00, 0x00, 0x00, 0x00, 0x00,
   0x00, 0x00, 0x00, 0x00, 0x00, 0xc0, 0x03, 0x00, 0x00, 0x00, 0x00, 0x00,
   0x00, 0x00, 0x00, 0x00, 0x00, 0x00, 0x00, 0x00, 0x00, 0xe0, 0x03, 0x00,
   0x00, 0x00, 0x00, 0x00, 0x00, 0x00, 0x00, 0x00, 0x00, 0x00, 0x00, 0x00,
   0x00, 0xe0, 0x03, 0x00, 0x00, 0x00, 0x00, 0x00, 0x00, 0x00, 0x00, 0x00,
   0x00, 0x00, 0x00, 0x00, 0x00, 0xe0, 0x01, 0x00, 0x00, 0x00, 0x00, 0x00,
   0x00, 0x00, 0x00, 0x00, 0x00, 0x00, 0x00, 0x00, 0x00, 0xf0, 0x01, 0x00,
   0x00, 0x00, 0x00, 0x00, 0x00, 0x00, 0x00, 0x00, 0x00, 0x00, 0x00, 0x00,
   0x00, 0xf0, 0x1f, 0x00, 0x00, 0x00, 0x00, 0x00, 0x00, 0x00, 0x00, 0x00,
   0x00, 0x00, 0x00, 0x00, 0x00, 0xf0, 0x0f, 0x00, 0x00, 0x00, 0xc0, 0x7f,
   0xfe, 0x83, 0x83, 0x8f, 0x0f, 0x00, 0x00, 0x00, 0x00, 0xf8, 0x0f, 0x00,
   0x00, 0x00, 0xc0, 0xff, 0xfe, 0x83, 0xc3, 0x8f, 0x0f, 0x00, 0x00, 0x00,
   0x00, 0x00, 0x07, 0x00, 0x00, 0x00, 0x40, 0xce, 0x1c, 0x83, 0x07, 0x8f,
   0x07, 0x00, 0x00, 0x00, 0x00, 0x80, 0x07, 0x00, 0x00, 0x00, 0x60, 0xce,
   0x1c, 0xc2, 0x87, 0x8f, 0x07, 0x00, 0x00, 0x00, 0x00, 0x80, 0x03, 0x00,
   0x00, 0x00, 0x40, 0xce, 0x9c, 0xc2, 0x07, 0xcf, 0x07, 0x00, 0x00, 0x00,
   0x00, 0xc0, 0x03, 0x00, 0x00, 0x00, 0x40, 0x4e, 0xdc, 0x40, 0x86, 0xdd,
   0x07, 0x00, 0x00, 0x00, 0x00, 0xc0, 0x01, 0x00, 0x00, 0x00, 0x00, 0x0e,
   0xdc, 0xc0, 0x06, 0x5d, 0x07, 0x00, 0x00, 0x00, 0x00, 0xc0, 0x00, 0x00,
   0x00, 0x00, 0x00, 0x0e, 0xfc, 0x60, 0x8e, 0x5d, 0x07, 0x00, 0x00, 0x00,
   0x00, 0xe0, 0x00, 0x00, 0x00, 0x00, 0x00, 0x0e, 0xdc, 0x60, 0x0e, 0x79,
   0x07, 0x00, 0x00, 0x00, 0x00, 0x60, 0x00, 0x00, 0x00, 0x00, 0x00, 0x0e,
   0x9c, 0xe2, 0x8f, 0x79, 0x07, 0x00, 0x00, 0x00, 0x00, 0x60, 0x00, 0x00,
   0x00, 0x00, 0x00, 0x0e, 0x1c, 0xe2, 0x0e, 0x79, 0x07, 0x00, 0x00, 0x00,
   0x00, 0x30, 0x00, 0x00, 0x00, 0x00, 0x00, 0x0e, 0x1c, 0x32, 0x9c, 0x39,
   0x07, 0x00, 0x00, 0x00, 0x00, 0x30, 0x00, 0x00, 0x00, 0x00, 0x00, 0x0e,
   0x1c, 0x33, 0x1c, 0x39, 0x07, 0x00, 0x00, 0x00, 0x00, 0x10, 0x00, 0x00,
   0x00, 0x00, 0x00, 0x3f, 0xfe, 0x7b, 0xbe, 0xb3, 0x0f, 0x00, 0x00, 0x00,
   0x00, 0x08, 0x00, 0x00, 0x00, 0x00, 0x00, 0x3f, 0xfe, 0x73, 0xbe, 0x93,
   0x0f, 0x00, 0x00, 0x00, 0x00, 0x08, 0x00, 0x00, 0x00, 0x00, 0x00, 0x00,
   0x00, 0x00, 0x00, 0x00, 0x00, 0x00, 0x00, 0x00, 0x00, 0x04, 0x00, 0x00,
   0x00, 0x00, 0x00, 0x00, 0x00, 0x00, 0x00, 0x00, 0x00, 0x00, 0x00, 0x00,
   0x00, 0x00, 0x00, 0x00, 0x00, 0x00, 0x00, 0x00, 0x00, 0x00, 0x00, 0x00,
   0x00, 0x00, 0x00, 0x00, 0x00, 0x00, 0x00, 0x00, 0x00, 0x00, 0x00, 0x00,
   0x00, 0x00, 0x00, 0x00, 0x00, 0x00, 0x00, 0x00, 0x00, 0x00, 0x00, 0x00,
   0x00, 0x00, 0x00, 0x00, 0x00, 0x00, 0x00, 0x00, 0x00, 0x00, 0x00, 0x00,
   0x00, 0x00, 0x00, 0x00, 0x00, 0x00, 0x00, 0x00, 0x00, 0x00, 0x00, 0x00,
   0x00, 0x00, 0x00, 0x00 };
