<?xml version="1.0" encoding="UTF-8"?>
<svg id="Layer_1" data-name="Layer 1" xmlns="http://www.w3.org/2000/svg" viewBox="0 0 976.74 748.33">
  <path d="M82.15,108.61c1.05.16,2.66.3,4.55-.03,3.13-.55,5.23-2.07,5.71-2.39,6.32-4.2,31.41,1.19,35.89,2.11,10.06,2.07,20.46,1.73,30.67,2.83,19.75,2.13,138,1.07,430.29-5.98-.25,1.15-.49,2.31-.74,3.46l-4.67,6.93-8.26,11.54-4.97,6.79-4.63,6.83-1.64,3.16s-.43,1.64-.56,1.77-.65,1.38-.65,1.38l-1.51,6.44-.65,4.24-.99,10.25.13,3.59.13,3.76.26,4.41.48,3.03,1.04,5.66,2.68,10.64,3.07,8.04,5.02,10.38,16.78,23.78h-159.93l-1.84,506.33h-166.96l-2.77-503.65-49.7-.35c.9,41.79,1.23,70.26.36,78.03,0,0-.84,7.56,1.83,15.54.67,1.99,1.77,3.51,1.77,3.51.52.72.9,1.07,1.7,1.93,0,0,1.26,1.35,3.1,3.61,1.79,2.2,3.03,5.83,3.23,9.22.35,5.88-2.48,10.18-3.46,11.53-1.01,1.25-3.2,3.6-6.76,4.9-3.77,1.37-7.01.81-9.38.4-2.71-.47-5.82-1-8.76-3.46-4.75-3.97-5.21-9.74-5.3-10.84-.11-1.3-.4-4.93,1.61-8.3,1.54-2.58,3.92-4.15,4.11-4.27.35-.22.64-.39.96-.57,2.57-1.44,4.69-2.07,4.8-2.11,1.67-.57,2.46-23.01.28-100.98-2.77-.72-13.2-3.07-23.48,2.65-4.74,2.64-7.79,6.07-9.57,8.47-10.59,17.12-23.71,26.33-30.09,28.48-2.98,1-10.56,2.51-14.07,2.65-1.56.06-3.23.06-3.23.06-.34,0-1.66,0-4.04-.12-1.94-.09-3.41-.19-3.68-.21-4.41-.31-17.46-1.29-22.77-1.63-11.86-.77-17.93-1.14-24.63-.17-4.71.68-8.54,1.69-11.11,2.48-2.91,3.36-5.81,6.73-8.72,10.09l-7.73,1.38c-1.74-.3-4.28-1.01-6.8-2.8-.81-.58-1.5-1.18-2.07-1.76-.4-.37-.98-.93-1.62-1.67-1.11-1.3-2.63-3.09-3.27-5.73-.16-.65-.33-1.63-.3-2.86-.08-1.14-.08-2.53.13-4.09.34-2.49,1.1-4.49,1.77-5.88.44-1.02,1.24-2.52,2.64-4.01,1.53-1.62,3.12-2.53,4.16-3.02,1.73-.57,3.24-.84,4.38-.97,1.14-.13,2.82-.31,4.96.03,1.1.17,2,.44,2.65.66.71.24,1.6.55,2.54,1.15,1,.65,1.51,1.28,2.13,1.96.78.85,1.99,2.03,3.75,3.29,1.48.5,2.96,1,4.44,1.5,1.06.39,2.72.95,4.8,1.44,6.93,1.63,12.5.92,14.07.92,2.54,0,37.13,2.08,37.13,2.08,2.45.67,6.54,1.47,11.17.86,2.76-.36,5.09-1.14,5.94-1.44.47-.17,1.92-.69,3.86-1.67,2.02-1.02,4.91-2.71,8.13-5.42,2.49-2.1,4.34-3.94,6.41-6.17,2.84-3.06,6.66-7.35,11.05-12.86.43-.52,2.34-2.93,1.9-6.11-.16-1.16-.59-2.08-.97-2.71l-76.1,1.38,1.38-54.19-8.53-4.84-24.21-.92-8.99.23,1.84-5.77s3.46-2.54,5.3-2.54h16.37s7.61.23,7.84-.46c.23-.69,10.38-3.92,10.38-3.92l-1.46-60.94Z"/>
  <path d="M0,207.1h42.43c0-11.63-5.43-21.06-12.12-24.06H12.12c-6.7,3-12.12,12.43-12.12,24.06h42.43"/>
  <path d="M21.22,149.37c18.15-.27,18.15,28.25,0,27.98-18.15.27-18.15-28.25,0-27.98Z"/>
  <path d="M462.6,318.72h42.43c0-11.63-5.43-21.06-12.12-24.06h-18.19c-6.7,3-12.12,12.43-12.12,24.06h42.43"/>
  <path d="M483.82,260.99c18.15-.27,18.15,28.25,0,27.98-18.15.27-18.15-28.25,0-27.98Z"/>
  <path d="M700.82,380.25h42.43c0-11.63-5.43-21.06-12.12-24.06h-18.19c-6.7,3-12.12,12.43-12.12,24.06h42.43"/>
  <path d="M722.03,322.52c18.15-.27,18.15,28.25,0,27.98-18.15.27-18.15-28.25,0-27.98Z"/>
  <path d="M162,111.38c-5.12-3.35-3.04-13.08-2.42-27.68.27-6.21.36-15.41-.69-26.81-1.21-.27-3.37-.91-5.53-2.59-.78-.61-2.97-2.36-4.15-5.36-.33-.83-.85-2.45-.35-8.3.44-5.13.66-7.7,1.56-9.34,2.5-4.6,7.53-6.15,9.34-6.71,1.81-.56,6.88-2.05,12.28.49,3.83,1.79,5.91,4.71,6.75,6.05.73,1.7,1.52,3.98,1.95,6.75.56,3.62.31,6.69-.04,8.82.08.91.24,3.9-1.73,6.57-2.18,2.95-6.08,4.35-10.03,3.63-.71,4.56-1.46,11.12-1.44,19.03.06,20.15,5.13,33.4.23,36.16-1.82,1.02-4.31.21-5.71-.7Z"/>
  <path d="M219.07,127.64c-5.12-3.35-3.04-13.08-2.42-27.68.27-6.21.36-15.41-.69-26.81-1.21-.27-3.37-.91-5.53-2.59-.78-.61-2.97-2.36-4.15-5.36-.33-.83-.85-2.45-.35-8.3.44-5.13.66-7.7,1.56-9.34,2.5-4.6,7.53-6.15,9.34-6.71,1.81-.56,6.88-2.05,12.28.49,3.83,1.79,5.91,4.71,6.75,6.05.73,1.7,1.52,3.98,1.95,6.75.56,3.62.31,6.69-.04,8.82.08.91.24,3.9-1.73,6.57-2.18,2.95-6.08,4.35-10.03,3.63-.71,4.56-1.46,11.12-1.44,19.03.06,20.15,5.13,33.4.23,36.16-1.82,1.02-4.31.21-5.71-.7Z"/>
  <path d="M269.06,123.58c-6.07-5.51-4.4-18.49-2.42-38.4.95-9.61,2.12-24.01,2.54-42.06-1.09-4.85-2.97-8.07-4.5-10.12-2.77-3.72-5.29-4.83-7.87-9.77-1.49-2.85-1.81-4.71-1.9-5.97-.04-.57-.22-3.4,1.21-6.66,1.12-2.56,2.66-4.09,4.06-5.45,1.97-1.91,4.15-4.03,7.61-4.84,2.84-.67,5.22-.15,7.87.43,2.16.47,3.75.82,5.28,1.82,4.06,2.66,4.75,8.03,4.9,9.67.28.89.56,1.9.83,3.01.44,1.83.85,3.96,1.12,6.35.31,2.79-2.21,6.5-4.68,9.18-1.98,2.14-3.92,3.63-4.35,3.47-3.67,16.53-4.35,30.25-4.21,40.15.38,26.19,5.97,45.69.23,50.17-1.82,1.41-4.31.29-5.71-.98Z"/>
  <path d="M426.19,272.98c3.8,5.96,7.81,8.37,10.84,9.46,6.59,2.37,14.54.65,16.26,3.81,1.02,1.87.58,3.46.58,3.46-.09.32-.29.88-.84,1.51-3.38,3.86-9.07,5.41-9.07,5.41-7.54,2.05-15.48,1.33-18.79.92.35-8.19.69-16.37,1.04-24.56Z"/>
  <ellipse cx="642.62" cy="173.98" rx="65.79" ry="68.64"/>
  <path d="M719.27,107.92c1.46-3.58,10.2-5.74,23.23-4.44,20.56,2.35,40.02,9.24,59.28,18.25,43.25,19.87,81.44,48.54,101.11,91.64,43.33,88.99,34.94,208.86-47.93,272.07-46.13,35.51-113.15,43.85-167.37,45.51-41.41,3.77-65.32,13.67-62.16,55.09.27,22.89-2.44,115.85-4.27,145.2-.26,4.25-.61,8.59-3.83,12.15-3.4,3.75-8.25,4.67-10.98,4.93h-10.64c2.11-3.97,5.48-11.87,3.14-20.41-.28-1.02-.62-1.99-1.01-2.9-2.26-35.09-2.53-75.58,1.38-120.24,2.89-32.92,7.6-63.04,13.12-89.99,19.66-12.92,53.47-6.25,78.95-7.79,52.84,2.44,106.25-9.4,149.33-40.89,59.61-46.56,73.04-132.89,50.71-202.7-10.02-30.39-21.96-61.27-45.92-82.33-19.18-16.86-36.83-19.59-88.27-49.69-16.41-9.6-29.51-17.97-37.88-23.45Z"/>
  <path d="M595.71,723.77h-8.18c-2.68,0-4.85-2.17-4.85-4.85l-.17-261.97c0-2.77,2.31-4.97,5.07-4.85l48.26,2.19c2.2.1,4.2-1.3,4.85-3.41l2.2-7.09c1-3.22-1.51-6.45-4.87-6.28l-50.82,2.53c-2.62.13-4.86-1.84-5.07-4.45l-.16-1.95c-.33-4.13-5.35-5.96-8.27-3.03l-27.83,27.96c-.9.91-1.41,2.14-1.41,3.42v256.91c0,2.68-2.17,4.85-4.85,4.85h-.68c-2.68,0-4.85-2.17-4.85-4.85v-259.97c0-1.21.45-2.37,1.27-3.27-7.91-41.87,3.36-80.92,30.36-99.48,6.07-4.17,15.79-9.28,30-11.18,10.35.84,18.61,2.15,23.96,3.13,33.25,6.06,61.82-45.9,71.9-55.74,1.95-1.9,1.94-4.99.01-6.91-5.79-5.75-18.98-16.91-38.95-22.74-29.2-8.52-58.03,1.09-63.89,2.84-58.81,17.56-115.25,72.14-121.91,136.36-.27,2.61-.23,2.99-.46,19.26-1.03,71.01-2.31,93.11-3.77,156.95-.87,38.32-1.86,93.79-2.2,165.31,1.62,1.62,3.23,3.23,4.85,4.85h130.46c2.68,0,4.85-2.17,4.85-4.85-1.62-6.57-3.23-13.14-4.85-19.71Z"/>
  <path d="M601.27,479.01c-3.28,1.59,4.16,3.69,19.18,5.18,18.18,2.04,44.21,1.68,64.47,1.57,100.44,3.12,175.43-28,201.39-129.09,3.58-13.42,7.99-42.61,4.04-49.69-1.8-1.77-4.71,4.53-8.74,16.78-5.81,17.1-13.37,41.41-21.85,59.37-41.79,86.18-103.4,92.81-191.64,92.92-21.35-.06-50.19-1.43-66.73,2.91l-.11.05Z"/>
  <path d="M660.92,450.04c-1.52,1.54,2.01,3,9.39,4.02,15.61,2.06,31.75,1.79,47.66,1.56,27.05-.35,55.72-2.11,78.71-16.25,26.79-16.03,48.36-45.46,54.1-75.95,2.14-14.42-1.51-22.19-10.49-7.05-6.61,10.62-12.16,26.11-19.58,37.69-18.52,29.24-52.87,44.94-86.33,48.58-23.63,3.46-51.52-1.27-73.37,7.29l-.11.1Z"/>
  <path d="M849.73,318.1c1.58.94,2.04-2.29,1.32-8.61-1.6-13.34-5.23-26.63-8.76-39.74-5.98-22.3-13.47-45.64-29.91-61.7-18.79-18.8-47.45-30.5-73.65-28.88-12.27,1.24-17.87,5.89-3.57,10.14,10.1,3.25,23.96,4.6,35.02,8.32,27.87,9.21,47.98,34.33,58.01,61.24,7.82,18.81,9.82,42.87,21.44,59.15l.11.07Z"/>
  <path d="M694.79,237.71c.85-7.84,12.91-16.95,26.13-18.7,25.02-3.37,50.34,13.89,66.86,32.12,46.52,49.73,34.52,135.06-30.12,160.68-16.62,7.15-34.3,5.8-58.33,5.94-31.15-.53-72.87,1.07-99.96-.57-6.18-.8-10.68-4.84-4.15-11,6.8-6.32,16.79-10.2,27.27-12.74,39.67-7.06,85.33,6.93,123.73-7.24,45.38-14.09,62.47-83.42,21.65-112.64-14-10.65-33.54-15.66-48.96-19.6-13.76-3.86-24.36-6.56-24.17-15.88l.04-.38Z"/>
</svg>